Coordinates
version=1
nRows=49
nColumns=12
inDegrees=yes

Units are S.I. units (second, meters, Newtons, ...)
Angles are in degrees

endheader
time	SC_y	SC_z	SC_x	AC_y	AC_z	AC_x	GH_y	GH_z	GH_yy	EL_x	PS_y
       0.0              -14.92          2.611          55.28          63.77          4.506          16.59         -37.98          62.97          121.0          120.4          6.842
   0.04868              -14.93          2.611          55.28          63.77          4.507          16.59          -38.0          62.95          121.0          120.4          6.864
   0.09735              -14.93          2.611          55.28          63.77          4.507          16.59         -38.02          62.94          120.9          120.4          6.888
     0.146              -14.94           2.61          55.28          63.77          4.508          16.58         -38.04          62.93          120.9          120.4          6.913
    0.1947              -14.94           2.61          55.28          63.77          4.509          16.58         -38.06          62.91          120.9          120.3           6.94
    0.2434              -14.95           2.61          55.28          63.77           4.51          16.58         -38.09           62.9          120.8          120.3          6.968
    0.2921              -14.95           2.61          55.29          63.77           4.51          16.57         -38.12          62.88          120.8          120.3          6.999
    0.3407              -14.96          2.609          55.29          63.77          4.511          16.57         -38.14          62.87          120.7          120.3          7.032
    0.3894              -14.97          2.609          55.29          63.77          4.512          16.56         -38.17          62.85          120.7          120.3          7.067
    0.4381              -14.97          2.609          55.29          63.78          4.514          16.56         -38.21          62.83          120.6          120.3          7.104
    0.4868              -14.98          2.608           55.3          63.78          4.515          16.55         -38.24          62.81          120.5          120.2          7.144
    0.5354              -14.99          2.608           55.3          63.78          4.516          16.54         -38.28          62.78          120.5          120.2          7.188
    0.5841               -15.0          2.608           55.3          63.78          4.517          16.54         -38.32          62.76          120.4          120.2          7.234
    0.6328              -15.01          2.607           55.3          63.78          4.519          16.53         -38.36          62.73          120.3          120.2          7.285
    0.6815              -15.02          2.607          55.31          63.78           4.52          16.52         -38.41           62.7          120.2          120.1          7.339
    0.7301              -15.03          2.606          55.31          63.78          4.522          16.51         -38.46          62.67          120.1          120.1          7.398
    0.7788              -15.04          2.606          55.32          63.78          4.524           16.5         -38.52          62.64          120.0          120.1          7.463
    0.8275              -15.06          2.605          55.32          63.79          4.526          16.49         -38.58           62.6          119.9          120.0          7.533
    0.8762              -15.07          2.604          55.32          63.79          4.528          16.48         -38.64          62.56          119.8          120.0          7.609
    0.9248              -15.09          2.603          55.33          63.79          4.531          16.47         -38.71          62.52          119.7          120.0          7.693
    0.9735              -15.11          2.603          55.34          63.79          4.534          16.46         -38.79          62.47          119.5          119.9          7.785
     1.022              -15.13          2.602          55.34          63.79          4.537          16.44         -38.88          62.42          119.4          119.9          7.886
     1.071              -15.15          2.601          55.35           63.8           4.54          16.43         -38.98          62.36          119.2          119.8          7.998
      1.12              -15.17            2.6          55.36           63.8          4.544          16.41         -39.08           62.3          119.0          119.7          8.122
     1.168               -15.2          2.599          55.37           63.8          4.548          16.39          -39.2          62.22          118.8          119.7           8.26
     1.217              -15.23          2.597          55.38          63.81          4.552          16.37         -39.34          62.14          118.6          119.6          8.413
     1.266              -15.27          2.596          55.39          63.81          4.557          16.34         -39.48          62.05          118.3          119.5          8.585
     1.314               -15.3          2.594           55.4          63.81          4.563          16.31         -39.65          61.95          118.0          119.4          8.779
     1.363              -15.35          2.592          55.41          63.82          4.569          16.28         -39.84          61.84          117.7          119.3          8.998
     1.412               -15.4           2.59          55.43          63.83          4.577          16.25         -40.05          61.71          117.3          119.2          9.246
      1.46              -15.45          2.587          55.44          63.83          4.585           16.2          -40.3          61.56          116.8          119.0           9.53
     1.509              -15.52          2.584          55.46          63.84          4.595          16.16         -40.58          61.39          116.3          118.9          9.855
     1.558              -15.59          2.581          55.49          63.85          4.606           16.1          -40.9          61.19          115.7          118.7          10.23
     1.606              -15.68          2.577          55.52          63.86          4.618          16.04         -41.28          60.96          115.1          118.5          10.67
     1.655              -15.78          2.573          55.55          63.87          4.634          15.97         -41.72           60.7          114.3          118.2          11.18
     1.704               -15.9          2.567          55.58          63.88          4.651          15.88         -42.24          60.38          113.3          117.9          11.78
     1.752              -16.04          2.561          55.63           63.9          4.672          15.77         -42.86          60.01          112.2          117.5           12.5
     1.801              -16.21          2.554          55.68          63.92          4.698          15.65          -43.6          59.56          110.9          117.1          13.35
      1.85              -16.42          2.544          55.75          63.94          4.728           15.5         -44.49          59.01          109.3          116.6          14.39
     1.898              -16.67          2.533          55.83          63.97          4.765          15.31         -45.58          58.35          107.3          115.9          15.66
     1.947              -16.98           2.52          55.92          64.01          4.811          15.09         -46.93          57.53          104.9          115.1          17.22
     1.996              -17.36          2.502          56.05          64.05          4.869           14.8         -48.62          56.51          101.9          114.2          19.17
     2.044              -17.85          2.481           56.2          64.11          4.941          14.45         -50.73          55.22          98.03          112.9          21.63
     2.093              -18.47          2.453          56.39          64.18          5.033          13.99         -53.43          53.59          93.18          111.3          24.76
     2.142              -19.26          2.418          56.64          64.28          5.151          13.41         -56.88           51.5          86.96          109.3          28.76
      2.19              -20.28          2.373          56.96           64.4          5.302          12.67          -61.3          48.81          78.99          106.7          33.89
     2.239              -21.58          2.315          57.37          64.55          5.495          11.72         -66.96          45.38           68.8          103.4          40.44
     2.288              -23.21          2.242          57.88          64.74          5.738          10.52         -74.06          41.07           56.0          99.22          48.68
     2.336               -25.2          2.154          58.51          64.97          6.033          9.063         -82.73          35.81          40.39          94.14          58.73
